REM DIRINDEX 1\2,1\3
REM DIRNAME folder01,folder02,folder03
TITLE ""
FILE "Track55.mp3" MP3
  TRACK 01 AUDIO
    TITLE "0:"
    INDEX 01 00:00:00
  TRACK 02 AUDIO
    TITLE "3:cjc140_195"
    INDEX 01 00:00:05
  TRACK 03 AUDIO
    TITLE "2:cjc140_196"
    INDEX 01 00:02:08
  TRACK 04 AUDIO
    TITLE "2:cjc140_197"
    INDEX 01 00:10:37
  TRACK 05 AUDIO
    TITLE "2:cjc140_198"
    INDEX 01 00:16:38
  TRACK 06 AUDIO
    TITLE "0:"
    INDEX 01 00:26:34
